<?xml version="1.0" standalone="no"?>
<!DOCTYPE svg PUBLIC "-//W3C//DTD SVG 20010904//EN"
 "http://www.w3.org/TR/2001/REC-SVG-20010904/DTD/svg10.dtd">
<svg version="1.0" xmlns="http://www.w3.org/2000/svg"
 width="600.000000pt" height="600.000000pt" viewBox="0 0 600.000000 600.000000"
 preserveAspectRatio="xMidYMid meet">
<metadata>
Created by potrace 1.14, written by Peter Selinger 2001-2017
</metadata>
<g transform="translate(0.000000,600.000000) scale(0.100000,-0.100000)"
fill="#000000" stroke="none">
<path d="M2915 5305 c-288 -40 -521 -112 -775 -241 -909 -460 -1411 -1475
-1229 -2484 128 -709 586 -1327 1225 -1652 337 -172 625 -245 1004 -255 294
-8 512 23 777 108 363 118 678 313 952 591 111 113 122 130 110 172 -11 38
-34 56 -72 56 -24 0 -50 -20 -141 -112 -61 -61 -151 -144 -201 -184 -735 -590
-1768 -641 -2550 -127 -754 496 -1119 1374 -940 2259 144 709 651 1312 1325
1577 593 233 1223 202 1799 -90 90 -46 172 -83 181 -83 33 0 70 39 70 73 -1
45 -13 57 -115 115 -250 142 -588 249 -887 281 -127 14 -419 12 -533 -4z"/>
<path d="M3013 4769 c-206 -24 -388 -79 -588 -179 -167 -83 -293 -172 -426
-298 -111 -106 -160 -171 -152 -205 12 -49 64 -78 104 -57 11 6 55 48 97 92
253 265 590 439 947 488 104 14 342 14 436 0 363 -55 677 -216 930 -477 214
-222 353 -487 420 -803 33 -153 33 -438 2 -595 -101 -497 -403 -900 -843
-1124 -201 -103 -374 -151 -629 -175 -117 -11 -145 -17 -156 -32 -22 -29 -18
-81 6 -105 21 -21 29 -21 148 -16 387 17 773 176 1076 445 284 252 489 625
556 1012 44 256 21 564 -62 829 -41 130 -154 355 -236 471 -101 142 -303 339
-443 433 -360 238 -780 343 -1187 296z"/>
<path d="M5290 4717 c-26 -9 -40 -23 -57 -57 -22 -44 -22 -55 -24 -405 -1
-237 3 -384 10 -430 39 -231 104 -371 189 -411 22 -10 43 -28 47 -39 25 -84
15 -398 -32 -984 -16 -208 -27 -417 -27 -548 l-1 -211 25 -27 c42 -46 116 -75
192 -75 55 0 77 5 130 33 50 26 65 39 75 67 16 44 11 173 -22 560 -56 652 -69
980 -44 1116 13 69 20 81 58 89 79 17 150 130 176 279 18 109 22 925 4 973
-19 50 -48 73 -94 73 -50 0 -88 -35 -103 -95 -6 -22 -13 -173 -16 -335 -4
-162 -10 -298 -15 -303 -5 -5 -18 -6 -30 -2 -20 6 -20 13 -23 340 -3 320 -4
335 -24 361 -47 63 -139 48 -174 -28 -18 -40 -20 -68 -20 -360 0 -311 0 -318
-20 -318 -20 0 -20 7 -20 330 0 369 -2 379 -65 406 -40 17 -49 17 -95 1z m76
-104 c4 -15 5 -162 1 -327 -3 -166 -2 -312 2 -325 22 -78 166 -88 200 -14 8
18 11 124 10 349 0 177 2 328 6 333 9 16 32 13 39 -5 3 -9 6 -161 6 -339 l0
-323 31 -31 c52 -52 154 -42 186 19 4 8 10 159 13 336 4 256 8 324 19 338 10
12 17 14 25 6 15 -15 21 -755 7 -875 -18 -155 -56 -245 -114 -272 -15 -7 -39
-19 -54 -26 -44 -19 -70 -86 -84 -212 -16 -157 -2 -457 52 -1055 11 -124 22
-293 26 -377 l6 -151 -34 -21 c-71 -43 -157 -39 -210 10 l-32 30 6 162 c4 89
18 306 31 482 42 552 48 665 44 865 -4 233 -12 260 -81 289 -24 11 -53 32 -64
48 -46 67 -83 191 -103 345 -13 99 -10 735 3 756 5 6 19 12 32 12 18 0 26 -7
31 -27z"/>
<path d="M290 4581 c-126 -40 -207 -107 -258 -210 -25 -53 -27 -65 -31 -225
-10 -443 114 -937 243 -970 60 -15 59 -227 -5 -1116 -35 -483 -35 -623 -3
-667 57 -79 209 -99 322 -42 34 17 67 40 74 52 17 33 11 225 -17 550 -55 643
-68 901 -54 1061 11 129 20 153 61 171 96 40 157 177 199 447 19 117 23 185
23 378 1 301 -18 389 -98 472 -101 104 -304 148 -456 99z m210 -72 c229 -37
275 -145 258 -604 -14 -373 -79 -605 -181 -649 -74 -31 -96 -95 -104 -306 -6
-165 5 -371 48 -880 16 -195 31 -416 32 -490 l2 -135 -45 -22 c-25 -13 -63
-23 -87 -23 -47 0 -106 20 -118 40 -13 21 -6 290 15 570 64 861 67 1128 14
1205 -8 11 -29 26 -47 35 -106 50 -200 449 -201 855 -1 177 -1 181 27 237 42
86 117 140 227 164 70 16 82 16 160 3z"/>
<path d="M420 4383 c-16 -6 -30 -23 -30 -35 0 -19 43 -48 69 -48 17 0 43 -11
61 -26 110 -93 147 -379 78 -591 -26 -79 -97 -163 -139 -163 -29 0 -43 -9 -52
-32 -15 -42 64 -64 121 -34 70 37 135 136 168 257 26 92 25 309 0 404 -51 190
-172 307 -276 268z"/>
</g>
</svg>
